<svg height="512" viewBox="0 0 60 60" width="512" xmlns="http://www.w3.org/2000/svg"><g id="012---Astronaut-with-Flag" fill="none"><g id="Icons" transform="translate(3 1)"><path id="Shape" d="m53 13c0 4.76-2.78 8.33-6.78 10.29-2.4089408 1.1521844-5.0498338 1.737149-7.72 1.71-2.6996212.0208782-5.3680546-.5778088-7.8-1.75-3.94-2-6.7-5.5-6.7-10.25 0-7.18 6.48-13 14.5-13s14.5 5.82 14.5 13z" fill="#02a9f4"/><path id="Shape" d="m38.5 0c-.5008631-.00209788-1.0015091.02126559-1.5.07 7.3.67 13 6.2 13 12.93 0 4.76-2.78 8.33-6.78 10.29-1.9799665.9427879-4.1215425 1.4993941-6.31 1.64.53 0 1.06.07 1.6.07 2.6667966.0256198 5.3040977-.5593069 7.71-1.71 4-2 6.78-5.53 6.78-10.29 0-7.18-6.49-13-14.5-13z" fill="#0377bc"/><path id="Shape" d="m37.41 46-.79 9.53c-.054967.6761406-.3661859 1.3057327-.87 1.76-.7642338.6954405-1.85835.8937239-2.81803.510703-.9596801-.3830209-1.616597-1.2801645-1.69197-2.310703l-.79-11.91c1.9501722 1.5259546 4.3441722 2.3754384 6.82 2.42z" fill="#3f51b5"/><path id="Shape" d="m51 42c-.9654824.0033796-1.8735861-.4581158-2.44-1.24-.4245172 1.1880592-1.1811464 2.229292-2.18 3l-.09.08c-2.0334165 1.3759482-4.4250226 2.1268013-6.88 2.16h-1c-.33 0-.66 0-1 0h-.14c-2.4712167-.0330964-4.8647503-.8683765-6.82-2.38-2.15-1.83-3-4.67-2.1-8.33l-1.21 1c-.8712.7430728-2.0894083.9254161-3.14.47v-7.1l.95.62 4.24-3.66c-.76-1.21-.24-2.6 1.5-3.35 2.4366249 1.1667814 5.1085746 1.7586474 7.81 1.73 2.6667966.0256198 5.3040977-.5593069 7.71-1.71 1.42.65 2.06 1.87 1.56 3 1.05.15 2.49.81 3.62 3.07 1.2436753 2.9169459 2.120381 5.9770182 2.61 9.11.158532.8825967-.0860636 1.7898343-.6667677 2.4731295-.580704.6832951-1.4366221 1.0709952-2.3332323 1.0568705z" fill="#02a9f4"/><path id="Shape" d="m54 38.47c-.4711684-3.1269511-1.3276838-6.1835354-2.55-9.1-1.13-2.26-2.57-2.92-3.62-3.07.5-1.14-.14-2.36-1.56-3-.6143865.301143-1.2493041.5584517-1.9.77.6106456.5743705.7982789 1.468623.47 2.24 1.05.15 2.49.81 3.62 3.07 1.2180984 2.9137251 2.0712379 5.9668894 2.54 9.09.2101609 1.2448049-.3814511 2.4879895-1.48 3.11.4484396.2662644.958546.4110243 1.48.42.8966102.0141247 1.7525283-.3735754 2.3332323-1.0568705.5807041-.6832952.8252997-1.5905328.6667677-2.4731295z" fill="#0377bc"/><path id="Shape" d="m46.41 33.37 1.93 7.08c.0569736.1092744.123925.2130491.2.31" fill="#02a9f4"/><path id="Shape" d="m39.41 46c2.44712-.0341251 4.8311486-.7813061 6.86-2.15l.09-.08-.78 11.75c-.1204826 1.39599-1.2888205 2.4678363-2.69 2.4678363s-2.5695174-1.0718463-2.69-2.4678363z" fill="#3f51b5"/><path id="Shape" d="m46.27 43.82c-.9018094.6737674-1.9182219 1.1785856-3 1.49l-.68 10.18c-.0699683.8135607-.5083734 1.550376-1.19 2 .4412354.3041986.9640694.4680199 1.5.47 1.4161647-.0017344 2.590345-1.0973449 2.69-2.51l.78-11.75z" fill="#283593"/><path id="Shape" d="m24 2v54c0 1.1045695-.8954305 2-2 2s-2-.8954305-2-2v-54c0-1.1045695.8954305-2 2-2s2 .8954305 2 2z" fill="#cfd8dc"/><path id="Shape" d="m20 3v21.48c-.67-5.19-5.73-7.35-12-6.48-7.2 1-8-12-8-12 18.4 6 20-3 20-3z" fill="#f44335"/><path id="Shape" d="m17 6.69v12.82c1.6938135 1.1375863 2.7933361 2.970124 3 5v-21.51c-.4391719 1.59582296-1.5274093 2.93435491-3 3.69z" fill="#c81e1e"/><path id="Shape" d="m31 33-2.65 2.25" fill="#02a9f4"/><path id="Shape" d="m20 27.07v7.14l-3.21-2.08c-1.1392108-.7470855-1.6320077-2.1679832-1.2-3.46.2916144-.8652349.9613914-1.5505722 1.8197021-1.8619774.8583106-.3114052 1.8117206-.2149793 2.5902979.2619774z" fill="#02a9f4"/><path id="Shape" d="m53 13.28c0 4-6.49 6.72-14.5 6.72s-14.5-2.7-14.5-6.72 6.49-7.28 14.5-7.28 14.5 3.26 14.5 7.28z" fill="#ff9801"/><path id="Shape" d="m38.5 6c-.51 0-1 0-1.5 0 7.3.38 13 3.47 13 7.24s-5.7 6.41-13 6.76h1.5c8 0 14.5-2.7 14.5-6.72s-6.49-7.28-14.5-7.28z" fill="#f57c00"/><path id="Shape" d="m43.41 33v2c0 .5522847-.4477153 1-1 1h-3c-.5522847 0-1-.4477153-1-1v-2c0-.5522847.4477153-1 1-1h3c.5522847 0 1 .4477153 1 1z" fill="#ffdc00"/></g><g id="Stroke" fill="#000" transform="translate(0 -1)"><path id="Shape" d="m4 51c0-.5522847-.44771525-1-1-1h-2c-.55228475 0-1 .4477153-1 1s.44771525 1 1 1h2c.55228475 0 1-.4477153 1-1z"/><path id="Shape" d="m59 50h-8.92l.25-3.79c.6000684-.5259607 1.1130851-1.1436058 1.52-1.83 1.3396865.8557958 3.058997.8370467 4.3797022-.0477607s1.9921054-2.4677167 1.7102978-4.0322393c-.48075-3.2255224-1.3677982-6.3772316-2.64-9.38-.6341995-1.495531-1.8141744-2.6933843-3.3-3.35.011784-.8115985-.2972803-1.5950406-.86-2.18 11.34-7.23 5.19-24.39-9.64-24.39-5.4255155-.08775793-10.5188535 2.60605192-13.5 7.14v-4.14c0-1.65685425-1.3431458-3-3-3s-3 1.34314575-3 3v.89c-.4013674 1.2549098-1.2818282 2.30068159-2.45 2.91-2.28 1.33-6.94 2.28-16.24-.75-.31468694-.10326479-.6600882-.04402368-.92237947.15820089-.26229127.20222456-.40744261.52119577-.38762053.85179911 0 .34.56 8.42 4.51 11.65 1.28353414 1.0805157 2.97265807 1.5511355 4.63 1.29 5-.7 10.19.6 10.86 5.58v1.1c-1.118438-.176394-2.2587056.1369063-3.13.86-.9895071.812162-1.5305198 2.0488647-1.455348 3.3267852.0751718 1.2779204.7574461 2.4426651 1.835348 3.1332148l2.75 1.75v13.25h-15c-.55228475 0-1 .4477153-1 1s.44771525 1 1 1h15v6c0 1.6568542 1.3431458 2.9999999 3 2.9999999s3-1.3431457 3-2.9999999v-6h4.87l.37 5.56c.1423873 1.932749 1.7520132 3.4281545 3.69 3.4281545s3.5476127-1.4954055 3.69-3.4281545l.71-8.56h.16l.71 8.62c.1572783 1.932237 1.7793204 3.4154622 3.7178838 3.3997015 1.9385633-.0157606 3.5362751-1.5251627 3.6621162-3.4597015v-.64c.27.11-.13.08 6.38.08.5522847 0 1-.4477153 1-1s-.4477153-1-1-1c-6.72 0-6 0-6.26 0l.3-3h9c.5522847 0 1-.4477153 1-1s-.4477153-1-1-1zm-5.48-18.18c1.1837756 2.8276828 2.0166469 5.7897495 2.48 8.82.1047433.5300012-.0093856 1.0798335-.3164125 1.5243634-.307027.4445298-.7808333.7459409-1.3135875.8356366-.8153526.1532711-1.6430813-.1975282-2.1-.89l-1.89-7c-.0701124-.2560417-.2391555-.4736979-.4698766-.6050026-.230721-.1313046-.5041836-.165481-.7601234-.0949974-.5282319.1461291-.8404156.6902208-.7 1.22 1.36 5 1.9 7 2 7.19-.4092555.8564442-1.0158674 1.6035708-1.77 2.18-2.74 2.57-11.35 2.79-14.58-.19-2.1-1.77-2.42-4.34-1.84-7l2.39-2c.4197364-.3589851.4689851-.9902636.11-1.41s-.9902636-.4689851-1.41-.11l-3.86 3.28c-.4186205.3378952-.955715.4928956-1.49.43v-4.74c.47 0 .22.09 4.1-3.25.7908163.6480054 1.711577 1.1186164 2.7 1.38.513085.103974 1.0195198-.2053723 1.1612588-.7093335.1417391-.5039611-.1291971-1.031943-.6212588-1.2106665-2.12-.6-3.45-2.07-1.63-3.11 4.9280092 2.1710767 10.5380688 2.1891971 15.48.05 1.71 1.06.37 2.45-1.72 3.06-.3728787.0673885-.67564.3397413-.7819738.7034347-.1063339.3636934.0020273.756247.2798758 1.01389.2778486.257643.6774519.336114 1.032098.2026753 1.2369193-.3183011 2.3531117-.9928847 3.21-1.94 1.0425108.4687268 1.8681539 1.3158152 2.31 2.37zm1.48-16.61c.0049725.0699117.0049725.1400883 0 .21-.19 3.14-6 5.58-13.5 5.58s-13.31-2.44-13.5-5.58c-.0049725-.0699117-.0049725-.1400883 0-.21 0-3.37 6.23-6.21 13.5-6.21s13.5 2.84 13.5 6.21zm-24 13.12-3 2.58v-9.28c1.0028394 1.4753754 2.2958114 2.7309192 3.8 3.69-.8073867.7754801-1.1158281 1.935991-.8 3.01zm-1.36-7.87c5.87 3.4 17.86 3.4 23.74 0-4.93 7.43-18.88 7.37-23.75 0zm11.86-17.46c5.1790843-.13020308 9.9842201 2.68700154 12.4 7.27-6.12-4.36-18.67-4.37-24.8 0 2.4157799-4.58299846 7.2209157-7.40020308 12.4-7.27zm-30.64 16c-4.33.61-6.1-5.27-6.7-9.6 5.66 1.7 13.54 3.07 17.84-.96v13.48c-2.68-2.92-7.21-3.45-11.14-2.92zm9.47 14.28c-.4444856-.2902055-.7553669-.7452109-.8641574-1.2647793s-.0065646-1.0610728.2841574-1.5052207c.4775864-.7513549 1.4052821-1.0812023 2.25-.8v4.65zm5.67 24.72c-.0056782.4026282-.252292.762573-.6257065.913249-.3734146.1506761-.8007742.0626855-1.0842935-.223249-.45-.43-.29 3-.29-54.69.0056782-.40262821.252292-.76257296.6257065-.91324902.3734146-.15067606.8007742-.06268547 1.0842935.22324902.45.43.29-3 .29 54.69zm2-8v-10c.695961.0299433 1.3870541-.1290081 2-.46-.1955312 2.4179673.716649 4.7940494 2.48 6.46l.26 4zm10.08 8.55c-.4807117.4378442-1.1690658.5631321-1.7732227.3227457-.604157-.2403864-1.0182733-.8043333-1.0667773-1.4527457l-.66-9.91c1.4895315.7348145 3.0979356 1.1987121 4.75 1.37l-.71 8.56c-.0326247.4251182-.2256677.8219287-.54 1.11zm7.81.45c-.8794585-.0017433-1.6124023-.6739698-1.69-1.55l-.71-8.57c1.6398139-.1493297 3.2424848-.5753562 4.74-1.26l-.65 9.8c-.0580598.8901488-.7979617 1.5818915-1.69 1.58z"/><path id="Shape" d="m31 55h-1c-.5522847 0-1 .4477153-1 1s.4477153 1 1 1h1c.5522847 0 1-.4477153 1-1s-.4477153-1-1-1z"/><path id="Shape" d="m6 55h-2c-.55228475 0-1 .4477153-1 1s.44771525 1 1 1h2c.55228475 0 1-.4477153 1-1s-.44771525-1-1-1z"/><path id="Shape" d="m18 55h-8c-.55228475 0-1 .4477153-1 1s.44771525 1 1 1h8c.5522847 0 1-.4477153 1-1s-.4477153-1-1-1z"/><path id="Shape" d="m45.41 33h-3c-1.1045695 0-2 .8954305-2 2v2c0 1.1045695.8954305 2 2 2h3c1.1045695 0 2-.8954305 2-2v-2c0-1.1045695-.8954305-2-2-2zm0 4h-3v-2h3z"/><path id="Shape" d="m37.9 11.14c-.5522847.0276142-.9776142.4977153-.95 1.05.0276143.5522847.4977153.9776142 1.05.95.21 0 1.14-.14 3-.14.5522847 0 1-.4477153 1-1s-.4477153-1-1-1c-1.09 0-2.13.05-3.1.14z"/><path id="Shape" d="m33.67 12c-.8724693.2595403-1.6824746.6951734-2.38 1.28-.3948836.3865993-.4015993 1.0201164-.015 1.415s1.0201164.4015993 1.415.015c.4940033-.3679554 1.0492337-.6455706 1.64-.82.5219091-.182254.7972539-.7530909.615-1.275-.182254-.5219091-.7530909-.7972539-1.275-.615z"/></g></g></svg>